PathFileType	4	(X/Y/Z)	C:/Users/beibeiliu/ov580/test_trc\sequence.32_training_dense_right.trc
DataRate	CameraRate	NumFrames	NumMarkers	Units	OrigDataRate	OrigDataStartFrame	OrigNumFrames
120	120	18	19	mm	120	39	310
Frame#	Time	ThumbCMC			ThumbMCP			ThumbIP			ThumbTip			IndexMCP			IndexPIP			IndexTip			MiddleMCP			MiddlePIP			MiddleTip			RingMCP			RingPIP			RingTip			PinkyMCP			PinkyPIP			PinkyTip			BackHand1			BackHand2			BackHand3	
		X0	Y0	Z0	X1	Y1	Z1	X2	Y2	Z2	X3	Y3	Z3	X4	Y4	Z4	X5	Y5	Z5	X6	Y6	Z6	X7	Y7	Z7	X8	Y8	Z8	X9	Y9	Z9	X10	Y10	Z10	X11	Y11	Z11	X12	Y12	Z12	X13	Y13	Z13	X14	Y14	Z14	X15	Y15	Z15	X16	Y16	Z16	X17	Y17	Z17	X18	Y18	Z18	
38	0.316667	114.445	-16.9188	18.5696	101.491	-23.2439	-9.16458	99.7874	-22.2494	-36.1843	102.174	-26.5333	-54.1804	123.825	-4.5498	-49.8313	122.973	-30.5738	-55.9425	125.315	-42.6676	-28.6213	145.005	6.32901	-52.3202	140.849	-2.00778	-75.5208	139.612	-17.5379	-100.411	162.807	7.49416	-46.7319	166.462	4.23737	-67.3055	161.747	-6.13554	-89.1597	183.01	0.977668	-25.1663	191.858	5.9496	-37.1213	197.502	18.0429	-49.16	160.026	4.71128	4.4626	158.578	3.36542	26.2928	135.944	9.75798	13.0682	
39	0.325	108.767	-18.1962	17.6069	101.038	-23.5084	-13.1459	101.818	-24.604	-35.5692	101.951	-30.1889	-53.7077	119.766	-4.27645	-45.5472	119.628	-31.2589	-58.1118	121.568	-46.6237	-30.3586	139.324	4.84623	-54.9062	141.189	-4.54487	-79.0228	142.188	-19.0568	-101.385	164.965	6.26578	-46.655	165.033	6.35134	-67.7042	165.099	2.2664	-90.3841	179.318	0.873371	-26.9592	191.042	6.66776	-38.294	199.427	18.3294	-48.5858	160.929	3.94631	2.99114	159.794	0.551379	28.6439	132.259	8.63671	12.1449	
40	0.333333	107.931	-17.622	15.0721	99.6429	-26.5609	-10.6119	97.6389	-28.501	-34.2418	101.384	-30.5741	-54.8323	118.01	-5.96169	-47.6759	122.1	-33.0664	-57.8439	123.709	-47.4823	-28.4507	142.032	3.70599	-53.1257	138.988	-3.59512	-75.1903	140.415	-16.3997	-101.479	164.127	4.1774	-41.3584	164.655	7.82208	-65.17	168.628	8.51554	-85.2614	181.901	-1.79113	-24.7354	190.986	4.87637	-37.1154	198.881	16.2764	-44.7135	156.21	3.12345	2.08562	156.896	2.28938	27.8418	133.315	5.03014	12.2487	
41	0.341667	108.205	-19.6651	15.8001	95.8018	-29.6249	-8.61277	97.8195	-29.3202	-34.5524	98.9709	-33.6215	-57.2186	114.993	-8.47982	-48.7026	119.769	-36.0888	-57.8368	120.399	-50.3146	-32.4553	137.254	2.66059	-56.1276	140.285	-4.18796	-77.643	142.043	-15.2357	-103.051	162.052	5.68699	-43.9162	161.96	9.22363	-61.8889	168.089	11.6985	-86.7139	178.725	-3.39303	-22.5597	186.8	6.86781	-39.3231	195.979	15.7408	-42.9463	155.332	3.11359	4.4143	154.317	-0.224815	24.6351	127.247	4.05416	12.7867	
42	0.35	107.308	-20.8001	14.6674	96.031	-31.8679	-8.36083	93.8341	-33.1649	-35.2723	95.4058	-37.067	-57.8695	117.318	-12.5334	-51.4661	120.576	-36.1941	-58.846	122.508	-51.3389	-33.5541	137.954	1.71586	-56.3588	138.879	-3.00545	-75.3584	139.214	-11.7936	-101.812	155.635	4.72697	-42.4016	160.649	10.3378	-63.3466	161.712	13.9934	-81.3521	177.207	-2.39608	-22.489	184.446	5.06058	-33.7218	192.641	19.1216	-42.2498	151.932	2.64686	3.95378	152.464	0.65218	24.499	124.923	3.29112	8.91613	
43	0.358333	102.575	-23.4089	15.1514	95.7928	-33.5477	-8.86244	93.1257	-36.5367	-32.2655	94.8961	-40.3144	-52.6015	115.509	-11.3757	-48.0508	117.193	-41.8252	-58.7165	120.833	-54.1189	-34.7719	133.62	0.281002	-51.3977	131.887	-3.59631	-77.3499	134.764	-9.95463	-100.386	153.808	5.31603	-40.4819	157.311	11.1904	-64.9621	163.615	15.3162	-81.0641	175.162	0.389955	-23.4404	179.924	7.30345	-36.4388	189.128	19.8624	-42.7317	148.216	2.22834	3.67664	148.298	2.18696	24.766	125.41	1.52793	12.364	
44	0.366667	105.049	-24.7527	12.2802	94.358	-36.0396	-8.00137	92.1828	-39.7646	-31.5375	93.6684	-44.1851	-53.5921	111.214	-15.2386	-52.9535	114.94	-40.0548	-61.4493	124.421	-54.9025	-35.5242	129.756	-0.75884	-54.6489	133.164	-4.12411	-78.7278	133.796	-10.4994	-103.001	152.445	5.72157	-44.2334	154.722	12.2785	-64.983	160.446	16.3869	-81.5828	168.499	-0.724542	-25.8205	179.753	8.67048	-36.9651	183.452	21.5167	-45.5036	146.379	4.02589	-0.499618	146.209	-0.753037	27.6401	120.084	-0.125149	12.2581	
45	0.375	102.787	-26.7752	13.292	91.5403	-37.7685	-11.1953	88.2697	-41.5221	-34.4591	91.5122	-46.4472	-56.933	111.2	-13.8378	-48.8959	112.954	-40.9724	-61.635	120.688	-57.5823	-35.802	126.308	-1.07826	-53.4204	127.083	-4.23332	-75.6884	132.772	-10.6177	-102.796	147.425	3.29342	-39.8502	152.136	11.7068	-63.787	156.138	18.3528	-81.0884	169.71	1.13339	-24.572	173.386	6.44781	-36.0942	184.452	22.1864	-40.7699	141.473	0.718626	1.61392	145.64	0.957621	28.7506	114.842	-0.731417	9.3415	
46	0.383333	97.7014	-29.671	14.0393	90.7849	-39.8926	-9.36212	88.1016	-44.5675	-36.2507	92.475	-48.7478	-51.9371	105.628	-18.5556	-48.9129	114.782	-42.4336	-61.6261	122.718	-59.7925	-35.5511	125.56	-3.28446	-52.4844	125.338	-6.66901	-77.4604	130.306	-12.0308	-101.901	144.603	2.71715	-39.5081	148.847	10.6083	-63.0014	152.768	17.3344	-81.3665	168.519	1.62626	-23.8399	176.134	10.0407	-36.5712	177.531	21.8253	-44.185	144.098	0.486141	-1.49273	142.661	1.28386	24.3771	116.467	-1.65087	10.2505	
47	0.391667	99.9939	-29.9232	17.6684	87.0355	-43.2299	-9.16892	85.9542	-47.8895	-32.2945	94.6232	-49.8084	-52.779	103.391	-20.4464	-47.5489	115.79	-45.1853	-61.1765	118.084	-63.6852	-38.537	126.096	-4.59268	-54.3671	124.669	-9.09419	-80.0617	125.937	-14.3507	-104.459	144.308	1.6795	-39.3085	150.246	10.0435	-63.4756	150.784	14.8775	-80.1029	164.395	-0.0810285	-24.25	168.292	8.08749	-37.5857	172.957	21.8916	-43.3865	141.391	1.3704	2.46916	137.601	0.0766825	28.458	113.179	-3.2843	13.9078	
48	0.4	96.2087	-31.5801	17.1981	85.6161	-45.421	-6.96104	86.9242	-49.1503	-33.3833	91.9612	-54.1196	-49.9909	105.675	-23.1908	-52.4092	109.238	-45.9702	-61.5756	120.399	-63.8551	-40.2916	124.962	-6.41563	-54.527	122.374	-11.1239	-77.0145	124.916	-15.9988	-102.547	140.943	1.38085	-41.2865	146.157	6.58118	-59.7899	151.242	15.153	-83.4482	162.665	-2.14612	-22.709	170.989	7.37618	-33.6669	171.285	20.3484	-43.0258	139.83	-0.660538	4.09204	138.243	1.17337	26.0636	111.418	-3.37514	12.7525	
49	0.408333	97.5649	-30.8706	15.5722	87.1903	-43.985	-11.5944	86.3643	-50.935	-30.7276	93.5728	-54.0568	-52.4168	105.3	-21.9058	-48.3342	113.425	-48.9214	-59.2742	120.608	-64.8011	-36.2353	119.796	-7.06486	-50.1337	125.278	-10.6294	-79.0881	125.41	-15.7834	-99.9865	143.912	2.00977	-41.4851	142.824	6.6764	-60.2526	148.298	15.4855	-81.5939	158.6	-2.05223	-22.9518	169.408	7.09268	-34.2038	169.453	20.102	-41.0823	138.058	0.360117	2.01018	134.581	-1.40373	25.9103	110.557	-2.52239	13.3606	
50	0.416667	93.0587	-32.7568	13.9429	84.865	-47.3395	-9.64212	86.5249	-51.0409	-30.5774	92.0667	-54.3139	-54.3528	101.493	-21.9797	-50.3826	109.92	-47.3378	-61.5441	118.956	-65.624	-41.4648	118.845	-6.09894	-54.8252	119.817	-10.443	-74.7248	128.171	-14.085	-99.8365	142.894	2.97982	-40.1067	143.756	7.48695	-58.7668	148.72	16.3016	-80.1154	158.679	-0.487423	-23.6108	163.177	8.99745	-35.9939	172.457	21.5844	-39.777	133.56	0.495863	-0.11349	132.558	0.558782	25.7878	110.648	-4.15372	14.3712	
51	0.425	91.5678	-34.6617	17.9062	86.4332	-44.7226	-10.9135	88.1933	-49.9365	-30.4034	92.1428	-53.2814	-53.3912	102.167	-19.3518	-47.3202	110.091	-42.2935	-61.5656	116.403	-66.4279	-42.8289	118.593	-5.03331	-49.2817	119.125	-8.97939	-73.5636	121.699	-15.3193	-101.745	142.224	3.22264	-37.9968	140.158	9.61559	-62.2466	146.587	16.9845	-80.0182	157.518	1.52349	-24.0448	165.362	7.63173	-32.3268	169.126	26.2096	-40.8702	132.895	1.15735	0.882997	135.136	0.59901	28.091	106.645	-3.22649	14.2329	
52	0.433333	90.7921	-33.0211	16.7623	84.4749	-46.9782	-9.54056	88.4755	-49.0577	-31.8633	89.2874	-54.8947	-51.7078	102.426	-21.109	-50.289	107.517	-45.4663	-62.5055	120.577	-65.3467	-42.3467	118.972	-3.80374	-52.5565	117.066	-9.52022	-73.9955	125.017	-14.4132	-100.198	137.756	4.0312	-41.0129	140.329	8.93959	-60.4449	144.714	16.7814	-80.6086	155.29	1.25533	-22.5815	161.831	10.3325	-34.3368	166.33	24.889	-40.5962	134.047	2.16241	2.90536	129.956	-1.42325	30.7353	108.312	-4.02526	13.8306	
53	0.441667	90.8562	-33.404	17.3172	82.3514	-47.6923	-8.50153	85.2748	-51.2132	-29.5006	89.297	-54.2937	-55.026	100.178	-19.1114	-47.4215	108.745	-39.4665	-63.434	119.222	-62.1475	-48.1144	115.074	-4.95692	-50.7286	119.072	-8.61146	-77.8679	124.78	-13.2091	-99.2647	138.798	5.24411	-41.5889	140.634	9.41238	-59.4707	139.37	15.4726	-82.4768	155.979	1.47278	-20.8005	163.439	9.49286	-31.5636	163.002	24.3982	-40.4217	132.068	2.30166	5.26988	129.049	0.251057	29.2332	103.363	-3.0365	13.4685	
54	0.45	92.959	-32.4066	17.3924	84.8119	-45.4699	-6.3052	84.8398	-48.5954	-32.0643	88.1187	-53.7708	-50.1048	101.17	-19.8259	-51.2216	108.277	-44.2816	-63.3413	117.207	-63.617	-48.1595	115.424	-4.29721	-53.038	117.828	-8.7678	-78.4233	119.886	-13.6838	-98.5952	135.068	4.37782	-42.477	141.092	10.0665	-59.4261	140.622	15.2212	-78.813	155.171	4.33033	-24.0314	161.256	12.3762	-35.237	166.043	29.6233	-41.788	128.808	1.34596	1.56092	129.786	0.452387	29.3767	102.529	-2.01408	10.7986	
55	0.458333	92.904	-31.0354	16.803	84.3587	-42.3464	-9.19566	83.5499	-48.4333	-29.3826	90.474	-50.6642	-52.5394	98.3241	-20.0204	-49.1296	108.766	-41.8967	-61.5402	116.424	-62.6096	-46.6198	115.629	-3.39336	-51.4648	117.026	-7.65009	-75.0934	122.441	-12.9274	-101.477	137.547	4.86458	-38.0747	135.559	10.5795	-62.4842	142.876	17.8948	-79.3486	153.071	2.80417	-21.7126	162.517	13.0439	-33.4373	161.827	27.1664	-41.6496	129.745	3.75884	2.28208	129.087	-0.0358708	30.1265	100.454	-3.10252	11.9704	
